# xmcd
#
# Track frame offsets:
#	150
#	15565
#	30371
#	46649
#	68651
#	83361
#	102689
#	121872
#	140696
#	155945
#	174711
#	191304
#	211116
#	226896
#	243667
#	259995
#
# Disc length: 3717 seconds
#
# Revision: 0
# Processed by: cddbd v1.4PL0 Copyright (c) Steve Scherf et al.
# Submitted via: dBpowerAMP V4.0
#
DISCID=cf0e8310
DTITLE=Star Academy - Les Primes CD1 
DYEAR=1900
DGENRE=
TTITLE0=Musique
TTITLE1=En apesenteur
TTITLE2=La groupie du pianiste
TTITLE3=Passer ma route
TTITLE4=Foule sentimentale
TTITLE5=Sang pour sang
TTITLE6=La différence
TTITLE7=Un coup de soleil
TTITLE8=Ella Elle l'a
TTITLE9=Né quelque part
TTITLE10=Zen
TTITLE11=Jusqu'au bout
TTITLE12=Come back to me
TTITLE13=Forever
TTITLE14=Sans toi
TTITLE15=Malade
EXTD=
EXTT0=
EXTT1=
EXTT2=
EXTT3=
EXTT4=
EXTT5=
EXTT6=
EXTT7=
EXTT8=
EXTT9=
EXTT10=
EXTT11=
EXTT12=
EXTT13=
EXTT14=
EXTT15=
PLAYORDER=
